<svg xmlns="http://www.w3.org/2000/svg" width="24" height="24"><path style="stroke:none;fill-rule:nonzero;fill:#ccc;fill-opacity:1" d="M4.992 3.992c-.41 0-.773.246-.93.621a1 1 0 0 0 .231 1.094L10.586 12l-6.293 6.293a.992.992 0 0 0-.273.973.99.99 0 0 0 .714.714.992.992 0 0 0 .973-.273L12 13.414l6.293 6.293c.25.262.625.367.973.273a.99.99 0 0 0 .714-.714.992.992 0 0 0-.273-.973L13.414 12l6.293-6.293a.997.997 0 0 0 .223-1.105.995.995 0 0 0-1.637-.309L12 10.586 5.707 4.293a1.006 1.006 0 0 0-.715-.305zm0 0"/></svg>